<svg width="16" height="16" viewBox="0 0 16 16" fill="none" xmlns="http://www.w3.org/2000/svg">
<path d="M14.5315 13.4693L11.5634 10.4999C12.4533 9.34021 12.8688 7.88541 12.7256 6.43063C12.5823 4.97585 11.8911 3.63002 10.792 2.66616C9.69301 1.7023 8.26849 1.19257 6.80746 1.24039C5.34642 1.2882 3.95828 1.88998 2.92462 2.92364C1.89096 3.9573 1.28918 5.34544 1.24137 6.80648C1.19355 8.26751 1.70327 9.69203 2.66713 10.7911C3.631 11.8901 4.97682 12.5814 6.4316 12.7246C7.88639 12.8678 9.34119 12.4524 10.5009 11.5624L13.4715 14.5337C13.5413 14.6034 13.6241 14.6588 13.7153 14.6965C13.8064 14.7343 13.9041 14.7537 14.0028 14.7537C14.1014 14.7537 14.1991 14.7343 14.2903 14.6965C14.3814 14.6588 14.4643 14.6034 14.534 14.5337C14.6038 14.4639 14.6591 14.3811 14.6969 14.2899C14.7346 14.1988 14.7541 14.1011 14.7541 14.0024C14.7541 13.9038 14.7346 13.8061 14.6969 13.7149C14.6591 13.6238 14.6038 13.5409 14.534 13.4712L14.5315 13.4693ZM2.75089 6.99991C2.75089 6.15934 3.00015 5.33765 3.46715 4.63874C3.93414 3.93983 4.5979 3.3951 5.37449 3.07343C6.15107 2.75175 7.00561 2.66759 7.83003 2.83158C8.65444 2.99556 9.41172 3.40034 10.0061 3.99471C10.6005 4.58908 11.0052 5.34636 11.1692 6.17078C11.3332 6.9952 11.2491 7.84973 10.9274 8.62632C10.6057 9.40291 10.061 10.0667 9.36206 10.5337C8.66316 11.0007 7.84146 11.2499 7.00089 11.2499C5.87408 11.2488 4.79375 10.8006 3.99697 10.0038C3.20019 9.20706 2.75205 8.12673 2.75089 6.99991Z" fill="#9D9D9D"/>
</svg>
